<?xml version="1.0" encoding="utf-8"?>
<!-- Generator: Adobe Illustrator 22.0.1, SVG Export Plug-In . SVG Version: 6.00 Build 0)  -->
<svg version="1.1" id="Capa_1" xmlns="http://www.w3.org/2000/svg" xmlns:xlink="http://www.w3.org/1999/xlink" x="0px" y="0px"
	 viewBox="0 0 150 150" style="enable-background:new 0 0 150 150;" xml:space="preserve">
<style type="text/css">
	.st0{fill:#334A54;}
</style>
<g>
	<g>
		<path class="st0" d="M137.1,135.7c-7.6-5.3-11.2-8.1-18.2-13.8c-1.1,1.7-2.5,3.3-4,4.8c-1,1-2.1,1.8-3.3,2.6
			c-0.8,0.6-1.6,1-2.5,1.5c7.6,6.5,11.7,9.6,20.1,15.5c3.1,2.1,7.5,1.3,9.7-1.6C141,141.7,140.2,137.7,137.1,135.7z"/>
		<path class="st0" d="M115.4,118.1c0.1-0.2,0.3-0.4,0.4-0.5c0.9-1.4,1.6-2.9,2.2-4.2c0.6-1.6,1-3,1.2-4.1c0.2-1.1,0.3-1.8,0.3-1.8
			s-0.7,0-1.7,0.3c-1.1,0.2-2.5,0.6-4.1,1.2c-1.8,0.7-3.8,1.8-5.7,3.1c-0.6-0.4-1.2-0.8-1.8-1.3c-7.2-5.4-14-11.3-20.6-17.4
			c-2.6,2.7-5.3,5.4-8.1,8c7.1,6.6,14.7,12.8,22.6,18.5c-1.1,1.7-2.1,3.4-2.7,5c-0.6,1.6-1,3-1.2,4.1c-0.2,1.1-0.3,1.8-0.3,1.8
			s0.7,0,1.8-0.3c1.1-0.2,2.5-0.6,4.1-1.2c1.3-0.5,2.7-1.3,4.1-2.2c0.8-0.5,1.6-1,2.4-1.6c1.1-0.8,2.2-1.7,3.1-2.7
			C113,121.5,114.3,119.8,115.4,118.1z"/>
		<path class="st0" d="M19.2,29.6c0.6,0.9,1.3,1.9,1.9,2.9c13,19.6,27.2,38.8,43.4,56c2.7-2.6,5.4-5.2,8-8
			c-12.4-13-23.7-27-34.3-41.6c-3.1-4.3-5.7-8.5-8.2-12.3c-4.8-6.1-9.4-12-14.7-17.8c-1.1-1.2-5.1-4.3-5.4-6c0,0,0.6,3.2,2.2,8.5
			C13.9,17.2,15.4,24.7,19.2,29.6z"/>
		<polygon class="st0" points="138.3,2.5 138.3,2.5 139.8,2.8 		"/>
		<path class="st0" d="M35.1,126.7c-1.6-1.5-2.9-3.1-4-4.8c-7,5.7-10.6,8.5-18.2,13.8c-3.1,2-4,6-1.8,9c1.3,1.8,3.5,2.8,5.7,2.8
			c1.4,0,2.8-0.4,4-1.2c8.4-6,12.4-9.1,20.1-15.5c-0.8-0.5-1.7-0.9-2.5-1.5C37.3,128.5,36.1,127.7,35.1,126.7z"/>
		<path class="st0" d="M83.1,91.1c17.3-17.9,32.3-38.1,45.9-58.6c0.6-1,1.3-1.9,1.9-2.9c3.7-4.9,5.2-12.4,7-18.2
			c1.6-5.3,2.2-8.5,2.2-8.5c-0.3,1.7-4.3,4.8-5.4,6c-5.3,5.8-9.9,11.7-14.7,17.8c-2.5,3.8-5.2,8-8.2,12.3
			C100.5,54.5,88.4,69.4,75,83.1c-2.6,2.7-5.3,5.4-8.1,8c-7.3,7-15,13.7-23.1,19.8c-0.6,0.4-1.2,0.8-1.8,1.3
			c-1.9-1.3-3.8-2.4-5.7-3.1c-1.6-0.6-3-1-4.1-1.2c-1.1-0.2-1.8-0.3-1.8-0.3s0,0.7,0.3,1.8c0.2,1.1,0.6,2.5,1.2,4.1
			c0.5,1.4,1.3,2.8,2.2,4.2c0.1,0.2,0.3,0.4,0.4,0.5c1.1,1.7,2.4,3.4,3.9,4.9c1,1,2,1.9,3.1,2.7c0.8,0.6,1.6,1.1,2.4,1.6
			c1.4,0.9,2.8,1.7,4.1,2.2c1.6,0.6,3,1,4.1,1.2c1.1,0.2,1.8,0.3,1.8,0.3s0-0.7-0.3-1.8c-0.2-1.1-0.6-2.5-1.2-4.1
			c-0.6-1.6-1.6-3.3-2.7-5c8.9-6.4,17.3-13.4,25.2-20.9C77.7,96.5,80.4,93.8,83.1,91.1z"/>
	</g>
</g>
</svg>
