<?xml version="1.0" encoding="utf-8"?>
<!-- Generator: Adobe Illustrator 22.0.1, SVG Export Plug-In . SVG Version: 6.00 Build 0)  -->
<svg version="1.1" id="Capa_1" xmlns="http://www.w3.org/2000/svg" xmlns:xlink="http://www.w3.org/1999/xlink" x="0px" y="0px"
	 viewBox="0 0 32 32" style="enable-background:new 0 0 32 32;" xml:space="preserve">
<style type="text/css">
	.st0{fill:#334A54;}
</style>
<g>
	<g>
		<path class="st0" d="M14.8,5.6c0.6-0.7,0.8-1.6,0.7-2.5C15.3,1.3,13.8,0,12.1,0C10,0,8.4,1.8,8.6,3.8C9,6.9,12.9,8,14.8,5.6z"/>
		<path class="st0" d="M30.2,29.1C30.1,28.8,20.7,11,19.6,9.2c2.3-0.6,4.3,0.2,5.8,2.4c1.7,2.3,4.3,0.2,2.6-2.2
			c-2.8-4-8.4-5.7-12.8-3.1c-1.9,1.1-3.5,2-5.6,2c-4.5,0-4.5-3.5-6.5-3.5c-1.3,0-2.2,1.5-1,3.1c3,4.2,7.1,5.5,11.1,4.4
			c1.2,2,2.3,4.1,3.5,6.4l-4.7,3.2c-1.5,1.3-0.3,3.2,0.7,3.8c1.2,0.7,2.7,1.5,4.1,2.2c3.1,1.5,3.3,1.7,4.1,1.8
			c1.7,0.1,2.8-2.4,0.8-3.6c-1.3-0.8-3-1.9-4.3-2.7c1.2-0.7,3.9-1.9,4-1.9c1.7,2.9,2.9,5,3.8,6.5c0,0,0,0,0,0c0,0,0,0,0,0
			c1.8,3,1.8,3.2,2.5,3.7C28.9,32.7,31.3,31.2,30.2,29.1z"/>
	</g>
</g>
</svg>
