<?xml version="1.0" encoding="utf-8"?>
<!-- Generator: Adobe Illustrator 22.0.1, SVG Export Plug-In . SVG Version: 6.00 Build 0)  -->
<svg version="1.1" id="Layer_1" xmlns="http://www.w3.org/2000/svg" xmlns:xlink="http://www.w3.org/1999/xlink" x="0px" y="0px"
	 viewBox="0 0 150 150" style="enable-background:new 0 0 150 150;" xml:space="preserve">
<style type="text/css">
	.st0{fill:#334A54;}
</style>
<g>
	<polygon class="st0" points="120.6,53 101.5,53 101.5,75 79.5,75 79.5,94.1 101.5,94.1 101.5,116.1 120.6,116.1 120.6,94.1 
		142.6,94.1 142.6,75 120.6,75 	"/>
	<path class="st0" d="M69.9,65.4h22v-22h38.2v22h11.1c4-6.4,6.3-13.6,6.3-21.5c0-22.1-17.9-40-40-40c-13.4,0-25.3,6.6-32.5,16.7
		C67.8,10.5,55.9,3.9,42.5,3.9c-22.1,0-40,17.9-40,40c0,9.6,3.4,18.4,9,25.3L75,146.1l16.9-20.4v-21.9h-22V65.4z"/>
</g>
</svg>
